<svg width="41" height="40" viewBox="0 0 41 40" fill="none" xmlns="http://www.w3.org/2000/svg">
<path d="M16.3546 5H24.6456C26.2899 5.00002 27.9181 5.32391 29.4372 5.95317C30.9563 6.58243 32.3366 7.50474 33.4992 8.66743C34.6619 9.83013 35.5842 11.2105 36.2134 12.7296C36.8426 14.2487 37.1665 15.8769 37.1664 17.5212C37.1664 19.1654 36.8425 20.7936 36.2133 22.3127C35.584 23.8318 34.6617 25.2121 33.499 26.3748C32.3363 27.5375 30.956 28.4597 29.4369 29.089C27.9177 29.7182 26.2895 30.042 24.6453 30.042H17.3968L12.0308 35.5414C11.8782 35.6977 11.6825 35.805 11.4686 35.8496C11.2547 35.8941 11.0325 35.874 10.8301 35.7916C10.6278 35.7093 10.4546 35.5685 10.3326 35.3872C10.2107 35.206 10.1455 34.9925 10.1454 34.7741V28.3889C7.74723 27.0202 5.8689 24.897 4.80291 22.3498C3.73692 19.8026 3.54309 16.9744 4.2516 14.3056C4.96011 11.6368 6.5312 9.27711 8.72023 7.59405C10.9093 5.91098 13.5934 4.99896 16.3546 5ZM16.3333 20C16.8277 20 17.3111 19.8534 17.7222 19.5787C18.1333 19.304 18.4537 18.9135 18.643 18.4567C18.8322 17.9999 18.8817 17.4972 18.7852 17.0123C18.6888 16.5273 18.4507 16.0819 18.101 15.7322C17.7514 15.3826 17.3059 15.1445 16.821 15.048C16.336 14.9516 15.8334 15.0011 15.3766 15.1903C14.9197 15.3795 14.5293 15.7 14.2546 16.1111C13.9799 16.5222 13.8333 17.0055 13.8333 17.5C13.8333 18.163 14.0967 18.7989 14.5655 19.2678C15.0343 19.7366 15.6702 20 16.3333 20ZM27.1666 17.5C27.1666 16.837 26.9032 16.2011 26.4344 15.7322C25.9655 15.2634 25.3296 15 24.6666 15C24.1721 15 23.6888 15.1466 23.2777 15.4213C22.8665 15.696 22.5461 16.0865 22.3569 16.5433C22.1677 17.0001 22.1182 17.5028 22.2146 17.9877C22.3111 18.4727 22.5492 18.9181 22.8988 19.2678C23.2485 19.6174 23.6939 19.8555 24.1789 19.952C24.6638 20.0484 25.1665 19.9989 25.6233 19.8097C26.0801 19.6205 26.4706 19.3 26.7453 18.8889C27.02 18.4778 27.1666 17.9945 27.1666 17.5Z" fill="#7E7F80"/>
</svg>
