<svg width="25" height="24" viewBox="0 0 25 24" fill="none" xmlns="http://www.w3.org/2000/svg">
<path d="M10.1378 3H15.1124C16.0989 3.00001 17.0758 3.19435 17.9873 3.5719C18.8988 3.94946 19.7269 4.50284 20.4245 5.20046C21.1221 5.89808 21.6755 6.72627 22.053 7.63775C22.4306 8.54922 22.6249 9.52613 22.6249 10.5127C22.6248 11.4993 22.4305 12.4762 22.053 13.3876C21.6754 14.2991 21.122 15.1273 20.4244 15.8249C19.7268 16.5225 18.8986 17.0758 17.9871 17.4534C17.0756 17.8309 16.0987 18.0252 15.1122 18.0252H10.7631L7.54348 21.3249C7.45191 21.4186 7.33448 21.483 7.20616 21.5097C7.07785 21.5365 6.94448 21.5244 6.82308 21.475C6.70167 21.4256 6.59775 21.3411 6.52458 21.2323C6.4514 21.1236 6.41229 20.9955 6.41225 20.8645V17.0333C4.97334 16.2121 3.84634 14.9382 3.20675 13.4099C2.56715 11.8816 2.45085 10.1846 2.87596 8.58335C3.30107 6.98206 4.24372 5.56627 5.55714 4.55643C6.87056 3.54659 8.48103 2.99938 10.1378 3ZM10.125 12C10.4216 12 10.7116 11.912 10.9583 11.7472C11.205 11.5824 11.3972 11.3481 11.5108 11.074C11.6243 10.7999 11.654 10.4983 11.5961 10.2074C11.5383 9.91639 11.3954 9.64912 11.1856 9.43934C10.9758 9.22956 10.7086 9.0867 10.4176 9.02882C10.1266 8.97095 9.82502 9.00065 9.55093 9.11418C9.27684 9.22771 9.04257 9.41997 8.87775 9.66665C8.71293 9.91332 8.62496 10.2033 8.62496 10.5C8.62496 10.8978 8.78299 11.2794 9.0643 11.5607C9.3456 11.842 9.72713 12 10.125 12ZM16.625 10.5C16.625 10.1022 16.4669 9.72065 16.1856 9.43934C15.9043 9.15804 15.5228 9 15.125 9C14.8283 9 14.5383 9.08797 14.2916 9.2528C14.0449 9.41762 13.8527 9.65189 13.7391 9.92598C13.6256 10.2001 13.5959 10.5017 13.6538 10.7926C13.7117 11.0836 13.8545 11.3509 14.0643 11.5607C14.2741 11.7704 14.5413 11.9133 14.8323 11.9712C15.1233 12.0291 15.4249 11.9994 15.699 11.8858C15.9731 11.7723 16.2073 11.58 16.3722 11.3334C16.537 11.0867 16.625 10.7967 16.625 10.5Z" fill="#C5C6C8"/>
</svg>
