<svg width="16" height="16" viewBox="0 0 16 16" fill="none" xmlns="http://www.w3.org/2000/svg">
<path fill-rule="evenodd" clip-rule="evenodd" d="M2.73337 1.3335H13.2667C14 1.3335 14.6667 1.9335 14.6667 2.66683V13.3335C14.6667 14.0668 14.0667 14.6668 13.2667 14.6668H2.73337C2.00004 14.6668 1.33337 14.0668 1.33337 13.3335V2.66683C1.33337 1.9335 2.00004 1.3335 2.73337 1.3335ZM2.66671 13.3335H2.73337H13.2667H13.3334V2.66683H13.2667H2.73337H2.66671V13.3335ZM8.00004 4.66683H4.00004V8.66683H8.00004V4.66683ZM4.00004 11.3335V10.0002H12V11.3335H4.00004ZM12 7.3335H9.33337V8.66683H12V7.3335ZM12 4.66683H9.33337V6.00016H12V4.66683Z" fill="#7E7F80"/>
</svg>
