<svg width="25" height="24" viewBox="0 0 25 24" fill="none" xmlns="http://www.w3.org/2000/svg">
<path d="M22.618 12.324L13.618 2.31673C13.5218 2.21658 13.4065 2.13691 13.2788 2.08248C13.1511 2.02805 13.0138 2 12.875 2C12.7362 2 12.5989 2.02805 12.4712 2.08248C12.3435 2.13691 12.2281 2.21658 12.132 2.31673L3.13198 12.324C3.00272 12.4678 2.91785 12.646 2.88765 12.837C2.85745 13.028 2.88321 13.2237 2.96181 13.4004C3.04041 13.5771 3.16849 13.7272 3.33055 13.8326C3.49261 13.938 3.68171 13.9941 3.87498 13.9942H5.87498V20.9993C5.87494 21.1307 5.90078 21.2608 5.95103 21.3823C6.00127 21.5037 6.07493 21.614 6.16779 21.707C6.26066 21.7999 6.37091 21.8736 6.49225 21.9239C6.6136 21.9742 6.74365 22 6.87498 22H9.87498C10.0063 22 10.1364 21.9742 10.2577 21.9239C10.379 21.8736 10.4893 21.7999 10.5822 21.707C10.675 21.614 10.7487 21.5037 10.7989 21.3823C10.8492 21.2608 10.875 21.1307 10.875 20.9993V16.9964H14.875V20.9993C14.8749 21.1307 14.9008 21.2608 14.951 21.3823C15.0013 21.5037 15.0749 21.614 15.1678 21.707C15.2607 21.7999 15.3709 21.8736 15.4923 21.9239C15.6136 21.9742 15.7436 22 15.875 22H18.875C19.0063 22 19.1364 21.9742 19.2577 21.9239C19.379 21.8736 19.4893 21.7999 19.5822 21.707C19.675 21.614 19.7487 21.5037 19.7989 21.3823C19.8492 21.2608 19.875 21.1307 19.875 20.9993V13.9942H21.875C22.0682 13.9941 22.2574 13.938 22.4194 13.8326C22.5815 13.7272 22.7095 13.5771 22.7881 13.4004C22.8668 13.2237 22.8925 13.028 22.8623 12.837C22.8321 12.646 22.7472 12.4678 22.618 12.324Z" fill="#C5C6C8"/>
</svg>
