<svg width="16" height="16" viewBox="0 0 16 16" fill="none" xmlns="http://www.w3.org/2000/svg">
<path d="M6.34186 2H9.65824C10.316 2.00001 10.9672 2.12956 11.5749 2.38127C12.1825 2.63297 12.7346 3.00189 13.1997 3.46697C13.6648 3.93205 14.0337 4.48418 14.2854 5.09183C14.537 5.69948 14.6666 6.35075 14.6666 7.00847C14.6666 7.66618 14.537 8.31745 14.2853 8.92509C14.0336 9.53274 13.6647 10.0849 13.1996 10.5499C12.7345 11.015 12.1824 11.3839 11.5747 11.6356C10.9671 11.8873 10.3158 12.0168 9.6581 12.0168H6.7587L4.61232 14.2166C4.55128 14.2791 4.47299 14.322 4.38744 14.3398C4.3019 14.3577 4.21298 14.3496 4.13205 14.3166C4.05112 14.2837 3.98183 14.2274 3.93305 14.1549C3.88427 14.0824 3.8582 13.997 3.85816 13.9096V11.3556C2.89889 10.8081 2.14756 9.9588 1.72117 8.93992C1.29477 7.92104 1.21724 6.78976 1.50064 5.72223C1.78405 4.65471 2.41248 3.71084 3.28809 3.03762C4.16371 2.36439 5.23735 1.99959 6.34186 2ZM6.3333 8C6.53109 8 6.72443 7.94135 6.88888 7.83147C7.05332 7.72159 7.1815 7.56541 7.25718 7.38268C7.33287 7.19996 7.35268 6.99889 7.31409 6.80491C7.27551 6.61093 7.18026 6.43275 7.04041 6.29289C6.90056 6.15304 6.72238 6.0578 6.5284 6.01922C6.33441 5.98063 6.13335 6.00043 5.95062 6.07612C5.7679 6.15181 5.61172 6.27998 5.50183 6.44443C5.39195 6.60888 5.3333 6.80222 5.3333 7C5.3333 7.26522 5.43866 7.51957 5.6262 7.70711C5.81373 7.89464 6.06809 8 6.3333 8ZM10.6666 7C10.6666 6.73478 10.5613 6.48043 10.3737 6.29289C10.1862 6.10536 9.93186 6 9.66664 6C9.46886 6 9.27552 6.05865 9.11107 6.16853C8.94662 6.27841 8.81845 6.43459 8.74276 6.61732C8.66707 6.80004 8.64727 7.00111 8.68585 7.19509C8.72444 7.38907 8.81968 7.56725 8.95953 7.70711C9.09938 7.84696 9.27757 7.9422 9.47155 7.98078C9.66553 8.01937 9.8666 7.99957 10.0493 7.92388C10.232 7.84819 10.3882 7.72002 10.4981 7.55557C10.608 7.39112 10.6666 7.19778 10.6666 7Z" fill="#7E7F80"/>
</svg>
