<svg width="25" height="24" viewBox="0 0 25 24" fill="none" xmlns="http://www.w3.org/2000/svg">
<path d="M2.46898 15.271L4.46898 18.731C4.60176 18.9605 4.82025 19.1279 5.07641 19.1963C5.33257 19.2648 5.60542 19.2287 5.83498 19.096L7.23098 18.29C7.81098 18.747 8.45198 19.122 9.12598 19.402V21C9.12598 21.2652 9.23134 21.5196 9.41888 21.7071C9.60641 21.8946 9.86077 22 10.126 22H14.126C14.3912 22 14.6456 21.8946 14.8331 21.7071C15.0206 21.5196 15.126 21.2652 15.126 21V19.402C15.8053 19.1192 16.4428 18.7451 17.021 18.29L18.417 19.096C18.894 19.371 19.508 19.206 19.783 18.731L21.783 15.271C21.9146 15.0412 21.9501 14.7687 21.8817 14.5129C21.8134 14.257 21.6467 14.0385 21.418 13.905L20.046 13.112C20.1532 12.3745 20.1525 11.6253 20.044 10.888L21.416 10.095C21.892 9.82 22.057 9.205 21.781 8.729L19.781 5.269C19.6482 5.0395 19.4297 4.87212 19.1736 4.80367C18.9174 4.73523 18.6445 4.77131 18.415 4.904L17.019 5.71C16.4415 5.25438 15.8042 4.88022 15.125 4.598V3C15.125 2.73478 15.0196 2.48043 14.8321 2.29289C14.6446 2.10536 14.3902 2 14.125 2H10.125C9.85977 2 9.60541 2.10536 9.41788 2.29289C9.23034 2.48043 9.12498 2.73478 9.12498 3V4.598C8.44571 4.88081 7.80817 5.25492 7.22998 5.71L5.83498 4.904C5.72135 4.83817 5.59585 4.79539 5.46567 4.7781C5.33549 4.76082 5.20318 4.76937 5.0763 4.80327C4.94943 4.83717 4.83049 4.89576 4.72628 4.97567C4.62207 5.05559 4.53463 5.15526 4.46898 5.269L2.46898 8.729C2.33737 8.9588 2.30188 9.2313 2.37025 9.48715C2.43861 9.74299 2.60529 9.96147 2.83398 10.095L4.20598 10.888C4.09812 11.6254 4.09812 12.3746 4.20598 13.112L2.83398 13.905C2.35798 14.18 2.19298 14.795 2.46898 15.271ZM12.125 8C14.331 8 16.125 9.794 16.125 12C16.125 14.206 14.331 16 12.125 16C9.91898 16 8.12498 14.206 8.12498 12C8.12498 9.794 9.91898 8 12.125 8Z" fill="#E01728"/>
</svg>
