<svg width="32px" height="32px" viewBox="0 0 20 19" version="1.1"
  xmlns="http://www.w3.org/2000/svg">
  <path fill-rule="evenodd" clip-rule="evenodd"
    d="M12.4874 0H7.51283C5.50775 0 3.62114 0.780888 2.19914 2.20002C0.781107 3.62092 0 5.50753 0 7.51261C0 10.237 1.44199 12.6975 3.78729 14.0333V17.8644C3.78729 18.1325 3.94971 18.3738 4.19807 18.4749C4.27851 18.5077 4.36291 18.5237 4.44642 18.5237C4.62071 18.5237 4.79192 18.4547 4.91852 18.3248L8.13811 15.0252H12.4872C16.6299 15.0252 20 11.6551 20 7.51261C20 3.37015 16.6301 0 12.4874 0ZM2 7C2 4.23858 4.23858 2 7 2H13C15.7614 2 18 4.23858 18 7V8C18 10.7614 15.7614 13 13 13H7.26564L5.95111 14.8926C5.87515 14.9627 5.77243 15 5.66785 15C5.61774 15 5.56711 14.9913 5.51884 14.9737C5.36983 14.9191 5.27238 14.7888 5.27238 14.6441V12.6935C3.3623 11.9902 2 10.1542 2 8V7Z"
    fill="#595C5F" />
</svg>
