<svg width="40" height="40" viewBox="0 0 40 40" fill="none" xmlns="http://www.w3.org/2000/svg">
<path d="M39.486 20.648L21.486 0.633455C21.2937 0.433166 21.0629 0.273814 20.8076 0.164962C20.5522 0.0561096 20.2775 0 20 0C19.7224 0 19.4477 0.0561096 19.1924 0.164962C18.937 0.273814 18.7063 0.433166 18.514 0.633455L0.51396 20.648C0.255432 20.9355 0.085703 21.2919 0.0253036 21.674C-0.0350959 22.056 0.0164217 22.4474 0.173625 22.8008C0.330828 23.1542 0.586982 23.4544 0.911102 23.6652C1.23522 23.8759 1.61342 23.9882 1.99996 23.9884H5.99996V37.9986C5.99989 38.2614 6.05157 38.5217 6.15205 38.7646C6.25253 39.0074 6.39985 39.2281 6.58558 39.414C6.77131 39.5998 6.99182 39.7472 7.23451 39.8478C7.47719 39.9484 7.7373 40.0001 7.99996 40H14C14.2626 40.0001 14.5227 39.9483 14.7654 39.8478C15.0081 39.7472 15.2286 39.5998 15.4143 39.4139C15.6 39.2281 15.7474 39.0074 15.8478 38.7645C15.9483 38.5217 16 38.2614 16 37.9986V29.9927H24V37.9986C23.9999 38.2614 24.0516 38.5217 24.1521 38.7646C24.2525 39.0074 24.3999 39.2281 24.5856 39.414C24.7713 39.5998 24.9918 39.7472 25.2345 39.8478C25.4772 39.9484 25.7373 40.0001 26 40H32C32.2626 40.0001 32.5227 39.9484 32.7654 39.8478C33.0081 39.7472 33.2286 39.5998 33.4143 39.414C33.6001 39.2281 33.7474 39.0074 33.8479 38.7646C33.9484 38.5217 34 38.2614 34 37.9986V23.9884H38C38.3865 23.9882 38.7647 23.8759 39.0888 23.6652C39.4129 23.4544 39.6691 23.1542 39.8263 22.8008C39.9835 22.4474 40.035 22.056 39.9746 21.674C39.9142 21.2919 39.7445 20.9355 39.486 20.648Z" fill="#1265D7"/>
</svg>
