<svg width="56" height="56" viewBox="0 0 56 56" fill="none" xmlns="http://www.w3.org/2000/svg">
<g clip-path="url(#clip0_20154_111089)">
<rect width="56" height="56" fill="#7E7F80"/>
<path d="M21 19.4424C21 20.8269 21.4105 22.1802 22.1797 23.3314C22.9489 24.4825 24.0421 25.3797 25.3212 25.9095C26.6003 26.4394 28.0078 26.578 29.3656 26.3079C30.7235 26.0378 31.9708 25.3711 32.9497 24.3921C33.9287 23.4132 34.5954 22.1659 34.8655 20.808C35.1356 19.4501 34.997 18.0427 34.4672 16.7636C33.9373 15.4845 33.0401 14.3913 31.889 13.6221C30.7378 12.8529 29.3845 12.4424 28 12.4424C26.1442 12.4446 24.365 13.1829 23.0527 14.4951C21.7405 15.8074 21.0023 17.5866 21 19.4424ZM40.4444 41.9979H42V40.4424C41.9963 37.5556 40.8479 34.7881 38.8066 32.7469C36.7654 30.7056 33.9979 29.5572 31.1111 29.5535H24.8889C22.002 29.5569 19.2344 30.7052 17.1931 32.7466C15.1517 34.7879 14.0034 37.5555 14 40.4424V41.9979H40.4444Z" fill="white"/>
</g>
<defs>
<clipPath id="clip0_20154_111089">
<path d="M0 28C0 12.536 12.536 0 28 0V0C43.464 0 56 12.536 56 28V28C56 43.464 43.464 56 28 56V56C12.536 56 0 43.464 0 28V28Z" fill="white"/>
</clipPath>
</defs>
</svg>
